#!OML:ASF H:\ManfredETheater\Project 1\Capture day 1\Session 1\subject.ASF
:FULLY-SPECIFIED
:DEGREES
199
root 0.9832 17.8044 -16.1067 -172.442 -3.9025 178.412
lowerback 1.08695 -1.22621 -1.29447
upperback -4.29185 -1.78053 2.23046
thorax -4.93593 -0.863218 3.13773
lowerneck -17.1156 -1.82731 -2.26622
upperneck 17.5875 -1.67519 -0.231348
head 8.30784 -0.892069 0.104325
rclavicle -1.77788e-014 2.3059e-014
rhumerus -36.8247 -10.0113 -78.5148
rradius 32.8581
rwrist 3.1642
rhand -20.6167 -9.52619
rfingers 7.12502
rthumb 5.74444 -39.4283
lclavicle -1.77788e-014 2.3059e-014
lhumerus -39.3658 3.87156 88.7078
lradius 40.1881
lwrist -8.98828
lhand -11.345 6.06073
lfingers 7.12502
lthumb 14.6882 35.5204
rfemur -14.0824 1.42592 23.106
rtibia 32.756
rfoot -20.2716 -12.5404
rtoes -6.03229
lfemur -18.7577 -7.07617 -21.0808
ltibia 39.3323
lfoot -23.4924 -0.761199
ltoes 10.4271
200
root 0.978966 17.8027 -16.1133 -172.387 -3.85049 178.458
lowerback 1.10097 -1.21603 -1.26569
upperback -4.29267 -1.76599 2.23557
thorax -4.94631 -0.857015 3.12664
lowerneck -17.1235 -1.83514 -2.26484
upperneck 17.5349 -1.69087 -0.225319
head 8.29166 -0.899843 0.104166
rclavicle -2.67117e-016 -7.15625e-015
rhumerus -36.7347 -9.9278 -78.5516
rradius 32.9886
rwrist 3.05782
rhand -20.6657 -9.5327
rfingers 7.12502
rthumb 5.69707 -39.4361
lclavicle -2.67117e-016 -7.15625e-015
lhumerus -39.3292 4.07961 88.6419
lradius 39.8021
lwrist -9.17507
lhand -11.2808 6.16189
lfingers 7.12502
lthumb 14.75 35.6171
rfemur -14.1117 1.42245 23.1328
rtibia 32.7399
rfoot -20.2472 -12.4924
rtoes -6.31737
lfemur -18.7844 -7.03825 -21.0475
ltibia 39.3329
lfoot -23.5577 -0.729831
ltoes 10.5748
201
root 0.974834 17.8012 -16.1194 -172.331 -3.80478 178.505
lowerback 1.11798 -1.20472 -1.23855
upperback -4.29502 -1.75003 2.2419
thorax -4.96 -0.849988 3.1178
lowerneck -17.1314 -1.84406 -2.26268
upperneck 17.4853 -1.70712 -0.223422
head 8.27652 -0.908187 0.10243
rclavicle 1.25483e-015 3.49861e-014
rhumerus -36.6501 -9.84048 -78.5894
rradius 33.11
rwrist 2.95101
rhand -20.7187 -9.53465
rfingers 7.12502
rthumb 5.64598 -39.4394
lclavicle 1.25483e-015 3.49861e-014
lhumerus -39.2892 4.29135 88.5732
lradius 39.4083
lwrist -9.3659
lhand -11.2312 6.24422
lfingers 7.12502
lthumb 14.7978 35.6959
rfemur -14.1415 1.42819 23.1623
rtibia 32.7217
rfoot -20.2275 -12.4583
rtoes -6.58087
lfemur -18.8161 -6.99399 -21.0101
ltibia 39.3351
lfoot -23.6205 -0.717481
ltoes 10.7343
202
root 0.970797 17.7997 -16.1254 -172.275 -3.7671 178.553
lowerback 1.13753 -1.19352 -1.21335
upperback -4.29795 -1.73426 2.24885
thorax -4.97566 -0.842931 3.11078
lowerneck -17.1385 -1.8527 -2.26348
upperneck 17.4371 -1.72296 -0.21737
head 8.26175 -0.916063 0.102633
rclavicle -1.32192e-014 -5.56597e-015
rhumerus -36.5683 -9.75051 -78.6297
rradius 33.2209
rwrist 2.84567
rhand -20.7684 -9.53943
rfingers 7.12502
rthumb 5.59796 -39.4455
lclavicle -1.32192e-014 -5.56597e-015
lhumerus -39.2481 4.5062 88.5002
lradius 39.0133
lwrist -9.5537
lhand -11.1998 6.30065
lfingers 7.12502
lthumb 14.828 35.7501
rfemur -14.1702 1.43869 23.1943
rtibia 32.7016
rfoot -20.2188 -12.4351
rtoes -6.80825
lfemur -18.8519 -6.94357 -20.9693
ltibia 39.3386
lfoot -23.6829 -0.724515
ltoes 10.8955
203
root 0.966778 17.7982 -16.1314 -172.218 -3.73748 178.6
lowerback 1.15441 -1.18217 -1.18954
upperback -4.29907 -1.71821 2.25568
thorax -4.98788 -0.835707 3.10428
lowerneck -17.1395 -1.86192 -2.26573
upperneck 17.3832 -1.73991 -0.209195
head 8.24403 -0.924351 0.103722
rclavicle 2.08258e-014 -3.18055e-015
rhumerus -36.4878 -9.66187 -78.6709
rradius 33.3216
rwrist 2.74657
rhand -20.8142 -9.54263
rfingers 7.12502
rthumb 5.55374 -39.4498
lclavicle 2.08258e-014 -3.18055e-015
lhumerus -39.2058 4.72362 88.4227
lradius 38.6214
lwrist -9.74493
lhand -11.1689 6.34267
lfingers 7.12502
lthumb 14.8578 35.7899
rfemur -14.1961 1.44742 23.2269
rtibia 32.6798
rfoot -20.2276 -12.4155
rtoes -6.98894
lfemur -18.8897 -6.892 -20.9267
ltibia 39.343
lfoot -23.7453 -0.74775
ltoes 11.0671
204
root 0.962738 17.7966 -16.1373 -172.162 -3.71798 178.643
lowerback 1.16761 -1.17231 -1.16983
upperback -4.29774 -1.70415 2.26107
thorax -4.99524 -0.82933 3.09847
lowerneck -17.1458 -1.8708 -2.2612
upperneck 17.3345 -1.75622 -0.20874
head 8.22887 -0.932639 0.101142
rclavicle 6.45429e-015 7.15625e-015
rhumerus -36.4075 -9.57531 -78.7142
rradius 33.4121
rwrist 2.65545
rhand -20.8571 -9.54569
rfingers 7.12502
rthumb 5.5123 -39.454
lclavicle 6.45429e-015 7.15625e-015
lhumerus -39.165 4.9433 88.3393
lradius 38.2411
lwrist -9.93828
lhand -11.1204 6.38544
lfingers 7.12502
lthumb 14.9045 35.8293
rfemur -14.2196 1.44974 23.2554
rtibia 32.657
rfoot -20.2548 -12.3955
rtoes -7.11243
lfemur -18.9289 -6.84234 -20.8866
ltibia 39.3483
lfoot -23.8095 -0.783126
ltoes 11.2413
205
root 0.958639 17.7949 -16.1432 -172.105 -3.70514 178.684
lowerback 1.17924 -1.16262 -1.1512
upperback -4.29414 -1.6902 2.26507
thorax -4.9993 -0.822976 3.09171
lowerneck -17.152 -1.87932 -2.26171
upperneck 17.2848 -1.77277 -0.198686
head 8.21349 -0.940407 0.102576
rclavicle -5.76476e-015 2.22639e-014
rhumerus -36.3292 -9.4921 -78.7597
rradius 33.4945
rwrist 2.57388
rhand -20.8931 -9.55487
rfingers 7.12502
rthumb 5.47752 -39.4641
lclavicle -5.76476e-015 2.22639e-014
lhumerus -39.1286 5.1622 88.251
lradius 37.8771
lwrist -10.1271
lhand -11.0662 6.41933
lfingers 7.12502
lthumb 14.9568 35.8593
rfemur -14.2421 1.44628 23.2819
rtibia 32.6343
rfoot -20.3058 -12.3694
rtoes -7.1585
lfemur -18.9687 -6.7998 -20.8474
ltibia 39.3542
lfoot -23.8754 -0.821255
ltoes 11.4172
206
root 0.954488 17.793 -16.1489 -172.049 -3.69894 178.724
lowerback 1.18779 -1.15354 -1.1337
upperback -4.28748 -1.67694 2.26814
thorax -4.99835 -0.816938 3.08446
lowerneck -17.1617 -1.88868 -2.25911
upperneck 17.2361 -1.79044 -0.192312
head 8.19903 -0.948894 0.102104
rclavicle 3.00173e-014 -4.45278e-014
rhumerus -36.2491 -9.41692 -78.8055
rradius 33.5651
rwrist 2.50711
rhand -20.9224 -9.55754
rfingers 7.12502
rthumb 5.44924 -39.4675
lclavicle 3.00173e-014 -4.45278e-014
lhumerus -39.0961 5.38081 88.1583
lradius 37.5355
lwrist -10.3162
lhand -10.9867 6.47245
lfingers 7.12502
lthumb 15.0333 35.9067
rfemur -14.2657 1.43286 23.3058
rtibia 32.6131
rfoot -20.3594 -12.3389
rtoes -7.20635
lfemur -19.0101 -6.76775 -20.8093
ltibia 39.3609
lfoot -23.9432 -0.856307
ltoes 11.5885
207
root 0.950165 17.791 -16.1543 -171.989 -3.69815 178.761
lowerback 1.19499 -1.14521 -1.11545
upperback -4.27908 -1.66457 2.26967
thorax -4.9948 -0.811383 3.07513
lowerneck -17.1695 -1.89765 -2.25717
upperneck 17.1832 -1.80796 -0.184081
head 8.18283 -0.957203 0.102408
rclavicle 1.59649e-014 1.98785e-014
rhumerus -36.1687 -9.34734 -78.853
rradius 33.6261
rwrist 2.45481
rhand -20.9459 -9.55405
rfingers 7.12502
rthumb 5.4266 -39.4646
lclavicle 1.59649e-014 1.98785e-014
lhumerus -39.0682 5.59565 88.0625
lradius 37.2179
lwrist -10.4952
lhand -10.8835 6.54383
lfingers 7.12502
lthumb 15.1327 35.9706
rfemur -14.2941 1.40582 23.3258
rtibia 32.5954
rfoot -20.4149 -12.2991
rtoes -7.26864
lfemur -19.0546 -6.74702 -20.7737
ltibia 39.3682
lfoot -24.0126 -0.884092
ltoes 11.7552
208
root 0.945627 17.7888 -16.1593 -171.928 -3.70059 178.8
lowerback 1.20406 -1.13697 -1.09228
upperback -4.26997 -1.65208 2.27118
thorax -4.99167 -0.805941 3.06305
lowerneck -17.1782 -1.9055 -2.26073
upperneck 17.1278 -1.82433 -0.167563
head 8.16611 -0.96453 0.106514
rclavicle -1.46759e-014 -2.22639e-014
rhumerus -36.0881 -9.28421 -78.9018
rradius 33.679
rwrist 2.41638
rhand -20.9638 -9.54374
rfingers 7.12502
rthumb 5.40934 -39.4547
lclavicle -1.46759e-014 -2.22639e-014
lhumerus -39.0448 5.80406 87.9664
lradius 36.9224
lwrist -10.6533
lhand -10.7754 6.61837
lfingers 7.12502
lthumb 15.2368 36.0372
rfemur -14.3297 1.36635 23.3461
rtibia 32.582
rfoot -20.4703 -12.2485
rtoes -7.34307
lfemur -19.1027 -6.73764 -20.7365
ltibia 39.3767
lfoot -24.0834 -0.898935
ltoes 11.9086
209
root 0.940774 17.7863 -16.164 -171.863 -3.70222 178.838
lowerback 1.21569 -1.12743 -1.06605
upperback -4.26238 -1.63781 2.2716
thorax -4.99182 -0.79973 3.04813
lowerneck -17.1808 -1.91227 -2.26783
upperneck 17.0692 -1.83928 -0.146838
head 8.14729 -0.970952 0.112847
rclavicle -7.66874e-015 2.54444e-014
rhumerus -36.014 -9.22644 -78.9505
rradius 33.7264
rwrist 2.38921
rhand -20.9717 -9.53872
rfingers 7.12502
rthumb 5.40172 -39.4499
lclavicle -7.66874e-015 2.54444e-014
lhumerus -39.0334 5.99782 87.8738
lradius 36.654
lwrist -10.7755
lhand -10.667 6.70107
lfingers 7.12502
lthumb 15.3413 36.112
rfemur -14.373 1.31573 23.3628
rtibia 32.5746
rfoot -20.525 -12.1847
rtoes -7.43642
lfemur -19.1529 -6.73655 -20.7023
ltibia 39.386
lfoot -24.1573 -0.898634
ltoes 12.0412
